<svg width="50" height="50" viewBox="0 0 50 50" fill="none" xmlns="http://www.w3.org/2000/svg">
<path d="M48.8355 26.3379H48.7101C48.2731 24.3755 46.7255 22.8277 44.7631 22.3908V19.7631C44.7631 8.86572 35.8973 0 24.9999 0C14.1025 0 5.23682 8.86572 5.23682 19.7631V22.3908C3.27438 22.8278 1.72664 24.3755 1.28976 26.3379H1.16442C0.539651 26.3379 0.0332031 26.8445 0.0332031 27.4691C0.0332031 28.0938 0.539651 28.6003 1.16442 28.6003H1.28976C1.73795 30.6135 3.35504 32.1903 5.38954 32.5792C5.86001 34.5755 7.65504 36.0664 9.79293 36.0664C12.288 36.0664 14.3178 34.0365 14.3178 31.5415V23.3967C14.3178 20.9017 12.288 18.8719 9.79293 18.8719C8.95764 18.8719 8.17494 19.1003 7.50266 19.4967C7.64576 9.96923 15.4391 2.26244 24.9999 2.26244C34.5547 2.26244 42.3444 9.9595 42.497 19.4786C41.8317 19.0936 41.0606 18.8719 40.2382 18.8719C37.7432 18.8719 35.7133 20.9017 35.7133 23.3967V31.5415C35.7133 34.0365 37.7432 36.0664 40.2382 36.0664C42.3782 36.0664 44.1747 34.5726 44.6429 32.5733C45.3476 32.4339 46.0012 32.152 46.573 31.7587V36.755C46.573 38.8801 45.5398 40.8986 43.6635 42.4387C41.7225 44.032 39.1401 44.9095 36.392 44.9095H29.0496C28.8141 43.1394 28.0038 42.0814 26.8182 42.0814H22.5761C20.3929 42.0814 18.6168 43.8576 18.6168 46.0407C18.6168 48.2239 20.3929 50 22.5761 50H26.8182C28.0039 50 28.8142 48.9421 29.0496 47.1719H36.392C43.2533 47.1719 48.8355 42.4989 48.8355 36.755V28.6003C49.4602 28.6003 49.9667 28.0938 49.9667 27.4691C49.9667 26.8445 49.4602 26.3379 48.8355 26.3379ZM7.53049 23.3967C7.53049 22.1493 8.54542 21.1344 9.79293 21.1344C11.0404 21.1344 12.0554 22.1493 12.0554 23.3967V31.5415C12.0554 32.789 11.0404 33.804 9.79293 33.804C8.54542 33.804 7.53049 32.789 7.53049 31.5415C7.53049 30.9169 7.02404 30.4103 6.39927 30.4103C6.39395 30.4103 6.38886 30.411 6.38366 30.4111C6.37834 30.4111 6.37325 30.4103 6.36804 30.4103C4.74633 30.4103 3.42687 29.091 3.42687 27.4691C3.42687 26.2361 4.18976 25.1786 5.26804 24.7422V27.6829C5.26804 28.3076 5.77449 28.8141 6.39927 28.8141C7.02404 28.8141 7.53049 28.3076 7.53049 27.6829V23.3967ZM26.5766 47.7376H22.576C21.6403 47.7376 20.8791 46.9764 20.8791 46.0407C20.8791 45.1051 21.6403 44.3439 22.576 44.3439H26.5766C26.6953 44.5886 26.8582 45.1664 26.8582 46.0407C26.8582 46.915 26.6953 47.4929 26.5766 47.7376ZM43.6318 30.4103C43.0071 30.4103 42.5006 30.9169 42.5006 31.5415C42.5006 32.789 41.4857 33.804 40.2382 33.804C38.9907 33.804 37.9757 32.789 37.9757 31.5415V23.3967C37.9757 22.1493 38.9907 21.1344 40.2382 21.1344C41.4857 21.1344 42.5006 22.1493 42.5006 23.3967V27.6829C42.5006 28.3076 43.0071 28.8141 43.6318 28.8141C44.2566 28.8141 44.7631 28.3076 44.7631 27.6829V24.7545C45.8249 25.1986 46.573 26.2481 46.573 27.4691C46.573 29.091 45.2536 30.4103 43.6318 30.4103Z" fill="#111111"/>
</svg>
