<svg width="48" height="48" viewBox="0 0 48 48" fill="none" xmlns="http://www.w3.org/2000/svg">
<path d="M39 6C39 2.691 36.309 0 33 0H29C26.914 0 25.076 1.071 24 2.69C22.924 1.07 21.086 0 19 0H15C11.691 0 9 2.691 9 6C9 7.538 9.586 8.937 10.54 10H0V22H2V48H19H21H27H29H46V22H48V10H37.46C38.414 8.937 39 7.538 39 6ZM29 2H33C35.206 2 37 3.794 37 6C37 8.206 35.206 10 33 10H29H27H25V6C25 3.794 26.794 2 29 2ZM11 6C11 3.794 12.794 2 15 2H19C21.206 2 23 3.794 23 6V10H21H19H15C12.794 10 11 8.206 11 6ZM2 12H15H19V20H2V12ZM19 46H4V22H19V46ZM27 46H21V22V20V12H23H25H27V20V22V46ZM44 46H29V22H44V46ZM46 20H29V12H33H46V20Z" fill="#111111"/>
</svg>
